<svg width="35" height="36" viewBox="0 0 35 36" fill="none" xmlns="http://www.w3.org/2000/svg">
<path d="M2.91668 7.33506C2.11459 7.33506 1.45834 7.99475 1.45834 8.80103V30.7906C1.45834 32.4031 2.77084 33.7225 4.37501 33.7225H26.25C27.0521 33.7225 27.7083 33.0628 27.7083 32.2565C27.7083 31.4502 27.0521 30.7906 26.25 30.7906H5.83334C5.03126 30.7906 4.37501 30.1309 4.37501 29.3246V8.80103C4.37501 7.99475 3.71876 7.33506 2.91668 7.33506ZM21.875 21.9947C22.6771 21.9947 23.3333 21.3351 23.3333 20.5288V8.80103C23.3333 7.99475 22.6771 7.33506 21.875 7.33506H18.9583C18.1563 7.33506 17.5 7.99475 17.5 8.80103C17.5 9.60732 18.1563 10.267 18.9583 10.267H20.4167V20.5288C20.4167 21.3351 21.0729 21.9947 21.875 21.9947ZM30.625 1.47119H10.2083C8.60418 1.47119 7.29168 2.79056 7.29168 4.40313V24.9267C7.29168 26.5392 8.60418 27.8586 10.2083 27.8586H30.625C32.2292 27.8586 33.5417 26.5392 33.5417 24.9267V4.40313C33.5417 2.79056 32.2292 1.47119 30.625 1.47119ZM29.1667 24.9267H11.6667C10.8646 24.9267 10.2083 24.267 10.2083 23.4607V5.8691C10.2083 5.06281 10.8646 4.40313 11.6667 4.40313H29.1667C29.9688 4.40313 30.625 5.06281 30.625 5.8691V23.4607C30.625 24.267 29.9688 24.9267 29.1667 24.9267Z" fill="#F57F95"/>
</svg>
