<svg width="30" height="34" viewBox="0 0 30 34" fill="none" xmlns="http://www.w3.org/2000/svg">
<path d="M3.33333 33.8586H26.6667C28.505 33.8586 30 32.3557 30 30.5078V7.05228C30 5.20432 28.505 3.70149 26.6667 3.70149H23.3333V0.350708H20V3.70149H10V0.350708H6.66667V3.70149H3.33333C1.495 3.70149 0 5.20432 0 7.05228V30.5078C0 32.3557 1.495 33.8586 3.33333 33.8586ZM13.3333 27.8506L7.155 21.6399L9.51167 19.2709L13.3333 23.1126L20.4883 15.9201L22.845 18.2891L13.3333 27.8506ZM3.33333 8.72767H26.6667V12.0785H3.33333V8.72767Z" fill="#EA72FA"/>
</svg>
