<svg width="35" height="36" viewBox="0 0 35 36" fill="none" xmlns="http://www.w3.org/2000/svg">
<path d="M2.91665 7.72252C2.11456 7.72252 1.45831 8.3822 1.45831 9.18848V31.178C1.45831 32.7906 2.77081 34.1099 4.37498 34.1099H26.25C27.0521 34.1099 27.7083 33.4503 27.7083 32.644C27.7083 31.8377 27.0521 31.178 26.25 31.178H5.83331C5.03123 31.178 4.37498 30.5183 4.37498 29.712V9.18848C4.37498 8.3822 3.71873 7.72252 2.91665 7.72252ZM30.625 1.85864H10.2083C8.60415 1.85864 7.29165 3.17801 7.29165 4.79058V25.3141C7.29165 26.9267 8.60415 28.2461 10.2083 28.2461H30.625C32.2291 28.2461 33.5416 26.9267 33.5416 25.3141V4.79058C33.5416 3.17801 32.2291 1.85864 30.625 1.85864ZM29.1666 25.3141H11.6666C10.8646 25.3141 10.2083 24.6545 10.2083 23.8482V6.25655C10.2083 5.45027 10.8646 4.79058 11.6666 4.79058H29.1666C29.9687 4.79058 30.625 5.45027 30.625 6.25655V23.8482C30.625 24.6545 29.9687 25.3141 29.1666 25.3141ZM23.3333 19.4503H18.9583V16.5183H21.875C23.4791 16.5183 24.7916 15.199 24.7916 13.5864V10.6545C24.7916 9.04189 23.4791 7.72252 21.875 7.72252H17.5C16.6979 7.72252 16.0416 8.3822 16.0416 9.18848C16.0416 9.99477 16.6979 10.6545 17.5 10.6545H21.875V13.5864H18.9583C17.3541 13.5864 16.0416 14.9058 16.0416 16.5183V20.9162C16.0416 21.7225 16.6979 22.3822 17.5 22.3822H23.3333C24.1354 22.3822 24.7916 21.7225 24.7916 20.9162C24.7916 20.1099 24.1354 19.4503 23.3333 19.4503Z" fill="#F57F95"/>
</svg>
