<svg width="33" height="34" viewBox="0 0 33 34" fill="none" xmlns="http://www.w3.org/2000/svg">
<path d="M29.3333 0.95813H8.91666C7.31249 0.95813 5.99999 2.2775 5.99999 3.89007V24.4136C5.99999 26.0262 7.31249 27.3456 8.91666 27.3456H29.3333C30.9375 27.3456 32.25 26.0262 32.25 24.4136V3.89007C32.25 2.2775 30.9375 0.95813 29.3333 0.95813ZM27.875 24.4136H10.375C9.57291 24.4136 8.91666 23.7539 8.91666 22.9477V5.35604C8.91666 4.54975 9.57291 3.89007 10.375 3.89007H27.875C28.6771 3.89007 29.3333 4.54975 29.3333 5.35604V22.9477C29.3333 23.7539 28.6771 24.4136 27.875 24.4136ZM1.62499 6.822C0.822906 6.822 0.166656 7.48169 0.166656 8.28797V30.2775C0.166656 31.8901 1.47916 33.2094 3.08332 33.2094H24.9583C25.7604 33.2094 26.4167 32.5497 26.4167 31.7435C26.4167 30.9372 25.7604 30.2775 24.9583 30.2775H4.54166C3.73957 30.2775 3.08332 29.6178 3.08332 28.8115V8.28797C3.08332 7.48169 2.42707 6.822 1.62499 6.822ZM23.5 18.5498V16.3508C23.5 15.134 22.5229 14.1518 21.3125 14.1518C22.5229 14.1518 23.5 13.1696 23.5 11.9529V9.75394C23.5 8.14138 22.1875 6.822 20.5833 6.822H16.2083C15.4062 6.822 14.75 7.48169 14.75 8.28797C14.75 9.09425 15.4062 9.75394 16.2083 9.75394H20.5833V12.6859H19.125C18.3229 12.6859 17.6667 13.3456 17.6667 14.1518C17.6667 14.9581 18.3229 15.6178 19.125 15.6178H20.5833V18.5498H16.2083C15.4062 18.5498 14.75 19.2094 14.75 20.0157C14.75 20.822 15.4062 21.4817 16.2083 21.4817H20.5833C22.1875 21.4817 23.5 20.1623 23.5 18.5498Z" fill="#F57F95"/>
</svg>
