<svg width="40" height="41" viewBox="0 0 40 41" fill="none" xmlns="http://www.w3.org/2000/svg">
<path d="M16.6667 20.1047C20.3486 20.1047 23.3333 17.1043 23.3333 13.4031C23.3333 9.70193 20.3486 6.70154 16.6667 6.70154C12.9848 6.70154 10 9.70193 10 13.4031C10 17.1043 12.9848 20.1047 16.6667 20.1047Z" fill="#EA72FA"/>
<path d="M17.25 23.4722C12.7 23.3047 3.33331 25.5832 3.33331 30.1571V31.8324C3.33331 32.7539 4.08331 33.5078 4.99998 33.5078H19.2333C15.1166 28.8838 17.1833 23.6398 17.25 23.4722ZM32.3833 30.1906C33.1666 28.8503 33.55 27.2251 33.1833 25.466C32.6166 22.7183 30.3166 20.5235 27.55 20.1717C23.1666 19.6021 19.4666 23.3047 20.05 27.711C20.4166 30.4921 22.5833 32.8042 25.3166 33.3738C27.0666 33.7424 28.6833 33.3571 30.0166 32.5696L33.1166 35.6859C33.4283 35.9991 33.8509 36.1751 34.2916 36.1751C34.7324 36.1751 35.155 35.9991 35.4666 35.6859C35.7783 35.3726 35.9533 34.9477 35.9533 34.5047C35.9533 34.0617 35.7783 33.6368 35.4666 33.3235L32.3833 30.1906ZM26.6666 30.1571C24.8333 30.1571 23.3333 28.6492 23.3333 26.8063C23.3333 24.9633 24.8333 23.4555 26.6666 23.4555C28.5 23.4555 30 24.9633 30 26.8063C30 28.6492 28.5 30.1571 26.6666 30.1571Z" fill="#EA72FA"/>
</svg>
