<svg width="34" height="31" viewBox="0 0 34 31" fill="none" xmlns="http://www.w3.org/2000/svg">
<path d="M12.8333 0.0261236C10.7304 0.0255049 8.66126 0.558226 6.81754 1.57497C4.97381 2.59172 3.41506 4.05962 2.28559 5.84279C1.15613 7.62596 0.492445 9.66675 0.355995 11.7763C0.219544 13.8857 0.614734 15.9958 1.50498 17.9109C1.08549 19.6564 0.707047 21.4116 0.369979 23.175C0.318684 23.441 0.332606 23.7156 0.410542 23.975C0.488478 24.2344 0.628083 24.4708 0.817291 24.6638C1.0065 24.8568 1.23962 25.0006 1.4965 25.0828C1.75338 25.1649 2.02629 25.1829 2.29165 25.1352C3.32998 24.9509 5.58831 24.5321 7.68498 24.0462C9.38438 24.8166 11.2337 25.1951 13.0974 25.154C14.9612 25.1129 16.7922 24.6533 18.4564 23.8089C20.1205 22.9644 21.5758 21.7564 22.7154 20.2735C23.8551 18.7905 24.6504 17.0701 25.043 15.2381C25.4357 13.4062 25.4157 11.5092 24.9847 9.68605C24.5536 7.86288 23.7224 6.15971 22.5518 4.70128C21.3812 3.24284 19.9009 2.06607 18.2193 1.25714C16.5378 0.448208 14.6975 0.0276021 12.8333 0.0261236ZM12.77 26.8324C15.0792 28.9906 18.1169 30.1881 21.27 30.1832C23.1033 30.1832 24.845 29.7861 26.4166 29.0724C28.155 29.4812 30.06 29.89 31.2716 30.1447C31.6128 30.2166 31.9664 30.201 32.3 30.0992C32.6335 29.9973 32.9361 29.8127 33.1798 29.5622C33.4235 29.3117 33.6004 29.0034 33.6943 28.666C33.7881 28.3286 33.7958 27.9728 33.7166 27.6316C33.4466 26.4538 33.02 24.6242 32.5983 22.9354C33.3391 21.3404 33.7383 19.6067 33.7702 17.8467C33.8021 16.0867 33.4658 14.3396 32.7833 12.7185C32.1008 11.0974 31.0872 9.6385 29.8081 8.43622C28.5291 7.23394 27.0131 6.3151 25.3583 5.73921C25.9497 6.81961 26.3979 7.97313 26.6916 9.17042C28.0969 10.081 29.2524 11.3314 30.0523 12.8073C30.8522 14.2831 31.2708 15.9371 31.27 17.6177C31.27 19.2797 30.87 20.8429 30.1616 22.22L29.945 22.6439L30.0616 23.1063C30.4416 24.6058 30.84 26.2896 31.1316 27.5461C29.8416 27.273 28.1016 26.8927 26.565 26.5241L26.125 26.4203L25.72 26.623C24.38 27.2931 22.87 27.6701 21.27 27.6701C19.5667 27.6733 17.8911 27.2372 16.4033 26.4035C15.2157 26.7034 13.9944 26.8476 12.77 26.8324Z" fill="#EA72FA"/>
</svg>
