<svg width="20" height="20" viewBox="0 0 20 20" fill="none" xmlns="http://www.w3.org/2000/svg">
<path d="M8.805 2.57663C8.91507 2.35343 9.0854 2.16549 9.29674 2.03407C9.50807 1.90266 9.75197 1.83301 10.0008 1.83301C10.2497 1.83301 10.4936 1.90266 10.7049 2.03407C10.9163 2.16549 11.0866 2.35343 11.1967 2.57663L13.05 6.3333L17.1933 6.9333C17.4396 6.96906 17.671 7.07306 17.8613 7.23351C18.0516 7.39396 18.1931 7.60447 18.2699 7.8412C18.3468 8.07794 18.3558 8.33145 18.296 8.57305C18.2362 8.81466 18.11 9.03471 17.9317 9.2083L14.9333 12.13L15.6417 16.2566C15.6834 16.5016 15.6559 16.7534 15.5621 16.9836C15.4684 17.2138 15.3122 17.4132 15.1111 17.5593C14.9101 17.7054 14.6722 17.7924 14.4243 17.8105C14.1765 17.8286 13.9285 17.777 13.7083 17.6616L10 15.7133L6.29333 17.6616C6.0732 17.777 5.82521 17.8286 5.57734 17.8105C5.32946 17.7924 5.09158 17.7054 4.89053 17.5593C4.68948 17.4132 4.53327 17.2138 4.43953 16.9836C4.34578 16.7534 4.31824 16.5016 4.36 16.2566L5.06666 12.13L2.06833 9.20663C1.89043 9.03286 1.76466 8.81281 1.70525 8.57132C1.64584 8.32984 1.65515 8.07655 1.73212 7.84008C1.8091 7.60361 1.95067 7.39338 2.14085 7.23314C2.33103 7.0729 2.56223 6.96904 2.80833 6.9333L6.95166 6.33163L8.80333 2.57663H8.805Z" fill="#EA72FA"/>
</svg>
